<svg width="149" height="31" viewBox="0 0 149 31" fill="none" xmlns="http://www.w3.org/2000/svg">
<rect y="15.8125" width="148.161" height="14.5972" fill="#EBFF00"/>
<rect width="148.161" height="14.3539" fill="#EBFF00"/>
<path d="M8.27134 3.44831H10.1997L13.3976 12H11.4453L10.7985 10.0956H7.60062L6.9299 12H5.03751L8.27134 3.44831ZM10.3075 8.6943L9.22952 5.55629H9.20556L8.09169 8.6943H10.3075ZM14.135 3.44831H16.0154V6.87378L19.357 3.44831H21.7046L18.0156 7.02948L22.028 12H19.6685L16.6502 8.20324L16.0154 8.88594V12H14.135V3.44831ZM25.1142 3.44831H27.0425L30.2404 12H28.2882L27.6414 10.0956H24.4435L23.7728 12H21.8804L25.1142 3.44831ZM27.1503 8.6943L26.0724 5.55629H26.0484L24.9346 8.6943H27.1503ZM30.2473 10.419H30.9659C31.2134 10.0837 31.413 9.72035 31.5648 9.32909C31.7245 8.93784 31.8442 8.51066 31.9241 8.04754C32.0119 7.58442 32.0678 7.08138 32.0918 6.53842C32.1237 5.99545 32.1397 5.40857 32.1397 4.77777V3.44831H38.3438V10.419H39.278V13.9523H37.5773V12H31.948V13.9523H30.2473V10.419ZM36.4634 10.419V4.99336H33.9362V5.14907C33.9362 5.73195 33.9203 6.27093 33.8883 6.76598C33.8644 7.26104 33.8165 7.72416 33.7446 8.15533C33.6807 8.57853 33.5849 8.97776 33.4572 9.35305C33.3374 9.72035 33.1817 10.0757 32.99 10.419H36.4634ZM40.2298 3.44831H46.6256V5.0293H42.1102V6.8618H46.2543V8.32301H42.1102V10.419H46.7214V12H40.2298V3.44831ZM47.9962 3.44831H50.6432L52.6433 9.32909H52.6673L54.5597 3.44831H57.2066V12H55.446V5.93956H55.422L53.326 12H51.8768L49.7808 5.99944H49.7568V12H47.9962V3.44831ZM58.8622 3.44831H60.7426V12H58.8622V3.44831ZM64.1911 8.62244C63.6242 8.47872 63.1651 8.19126 62.8137 7.76009C62.4704 7.32092 62.2987 6.75401 62.2987 6.05933C62.2987 5.6042 62.3786 5.21294 62.5382 4.88557C62.6979 4.55819 62.9095 4.28671 63.173 4.07112C63.4445 3.85553 63.7559 3.69983 64.1073 3.60401C64.4666 3.50021 64.8419 3.44831 65.2331 3.44831H69.4251V12H67.5567V8.77814H66.2272L63.9516 12H61.604L64.1911 8.62244ZM67.5567 7.37682V4.9215H65.7002C65.5006 4.9215 65.305 4.93747 65.1133 4.96941C64.9297 4.99336 64.762 5.04926 64.6103 5.13709C64.4666 5.21694 64.3508 5.33272 64.263 5.48443C64.1751 5.62815 64.1312 5.82378 64.1312 6.07131C64.1312 6.33481 64.1751 6.55039 64.263 6.71807C64.3588 6.88575 64.4825 7.0215 64.6342 7.1253C64.786 7.22111 64.9616 7.28899 65.1612 7.32891C65.3609 7.36085 65.5685 7.37682 65.7841 7.37682H67.5567ZM74.4068 3.44831H81.5212V12H79.6408V5.0293H76.2872V12H74.4068V3.44831ZM83.1791 3.44831H87.0357C87.5707 3.44831 88.0259 3.52816 88.4011 3.68785C88.7764 3.83956 89.0798 4.04318 89.3114 4.29869C89.5509 4.5542 89.7226 4.84964 89.8264 5.185C89.9382 5.51237 89.9941 5.84773 89.9941 6.19108C89.9941 6.54241 89.9382 6.88176 89.8264 7.20914C89.7226 7.53651 89.5509 7.82796 89.3114 8.08347C89.0798 8.33898 88.7764 8.54659 88.4011 8.70628C88.0259 8.85799 87.5707 8.93385 87.0357 8.93385H85.0595V12H83.1791V3.44831ZM86.5207 7.47263C86.7363 7.47263 86.9439 7.45667 87.1435 7.42473C87.3432 7.39279 87.5188 7.3329 87.6705 7.24507C87.8222 7.14925 87.942 7.0175 88.0298 6.84982C88.1257 6.68214 88.1736 6.46256 88.1736 6.19108C88.1736 5.9196 88.1257 5.70002 88.0298 5.53234C87.942 5.36466 87.8222 5.2369 87.6705 5.14907C87.5188 5.05325 87.3432 4.98937 87.1435 4.95743C86.9439 4.92549 86.7363 4.90952 86.5207 4.90952H85.0595V7.47263H86.5207ZM95.0005 12.1916C94.3377 12.1916 93.7468 12.0798 93.2278 11.8563C92.7088 11.6247 92.2697 11.3093 91.9103 10.9101C91.551 10.5108 91.2756 10.0437 91.0839 9.50875C90.8923 8.96579 90.7965 8.3829 90.7965 7.76009C90.7965 7.12929 90.8923 6.53842 91.0839 5.98747C91.2756 5.43652 91.551 4.95743 91.9103 4.55021C92.2697 4.14299 92.7088 3.82359 93.2278 3.59204C93.7468 3.36048 94.3377 3.2447 95.0005 3.2447C95.6552 3.2447 96.2421 3.36048 96.7611 3.59204C97.2881 3.82359 97.7312 4.14299 98.0906 4.55021C98.4499 4.95743 98.7253 5.43652 98.917 5.98747C99.1086 6.53842 99.2044 7.12929 99.2044 7.76009C99.2044 8.3829 99.1086 8.96579 98.917 9.50875C98.7253 10.0437 98.4499 10.5108 98.0906 10.9101C97.7312 11.3093 97.2881 11.6247 96.7611 11.8563C96.2421 12.0798 95.6552 12.1916 95.0005 12.1916ZM95.0005 10.6226C95.4236 10.6226 95.783 10.5428 96.0784 10.3831C96.3738 10.2154 96.6134 9.99582 96.797 9.72434C96.9807 9.45286 97.1124 9.14944 97.1923 8.81408C97.2801 8.47073 97.324 8.1194 97.324 7.76009C97.324 7.3848 97.2801 7.0215 97.1923 6.67017C97.1124 6.31884 96.9807 6.00743 96.797 5.73595C96.6134 5.45648 96.3738 5.2369 96.0784 5.0772C95.783 4.90952 95.4236 4.82568 95.0005 4.82568C94.5773 4.82568 94.2179 4.90952 93.9225 5.0772C93.6271 5.2369 93.3875 5.45648 93.2039 5.73595C93.0202 6.00743 92.8845 6.31884 92.7967 6.67017C92.7168 7.0215 92.6769 7.3848 92.6769 7.76009C92.6769 8.1194 92.7168 8.47073 92.7967 8.81408C92.8845 9.14944 93.0202 9.45286 93.2039 9.72434C93.3875 9.99582 93.6271 10.2154 93.9225 10.3831C94.2179 10.5428 94.5773 10.6226 95.0005 10.6226ZM99.7592 10.419H100.478C100.725 10.0837 100.925 9.72035 101.077 9.32909C101.236 8.93784 101.356 8.51066 101.436 8.04754C101.524 7.58442 101.58 7.08138 101.604 6.53842C101.636 5.99545 101.652 5.40857 101.652 4.77777V3.44831H107.856V10.419H108.79V13.9523H107.089V12H101.46V13.9523H99.7592V10.419ZM105.975 10.419V4.99336H103.448V5.14907C103.448 5.73195 103.432 6.27093 103.4 6.76598C103.376 7.26104 103.328 7.72416 103.257 8.15533C103.193 8.57853 103.097 8.97776 102.969 9.35305C102.849 9.72035 102.694 10.0757 102.502 10.419H105.975ZM112.077 3.44831H114.006L117.203 12H115.251L114.604 10.0956H111.407L110.736 12H108.843L112.077 3.44831ZM114.113 8.6943L113.035 5.55629H113.011L111.898 8.6943H114.113ZM120.624 7.20914L117.354 3.44831H119.57L122.564 6.96959V3.44831H124.373V6.95762L127.367 3.44831H129.583L126.277 7.16123L129.894 12H127.571L124.852 8.26313L124.373 8.82605V12H122.564V8.82605L121.977 8.2751L119.354 12H117.043L120.624 7.20914ZM130.643 3.44831H132.524V12H130.643V3.44831ZM134.176 3.44831H138.2C138.607 3.44831 138.978 3.48424 139.314 3.5561C139.649 3.62797 139.937 3.74774 140.176 3.91542C140.416 4.07512 140.599 4.2907 140.727 4.56219C140.863 4.83367 140.931 5.16903 140.931 5.56827C140.931 5.99944 140.831 6.35876 140.631 6.64621C140.44 6.93366 140.152 7.16921 139.769 7.35286C140.296 7.50457 140.687 7.77206 140.943 8.15533C141.206 8.53062 141.338 8.98575 141.338 9.52073C141.338 9.95191 141.254 10.3272 141.086 10.6466C140.919 10.958 140.691 11.2135 140.404 11.4131C140.124 11.6127 139.801 11.7605 139.434 11.8563C139.074 11.9521 138.703 12 138.32 12H134.176V3.44831ZM138.068 10.5388C138.252 10.5388 138.427 10.5228 138.595 10.4909C138.763 10.451 138.911 10.3911 139.038 10.3112C139.166 10.2234 139.266 10.1076 139.338 9.96388C139.418 9.82016 139.458 9.63651 139.458 9.41293C139.458 8.97377 139.334 8.66237 139.086 8.47872C138.839 8.28708 138.511 8.19126 138.104 8.19126H136.056V10.5388H138.068ZM137.96 6.90971C138.296 6.90971 138.571 6.82986 138.787 6.67017C139.002 6.51047 139.11 6.25096 139.11 5.89165C139.11 5.69203 139.074 5.52834 139.002 5.40059C138.931 5.27283 138.835 5.17302 138.715 5.10116C138.595 5.02929 138.455 4.98139 138.296 4.95743C138.144 4.92549 137.984 4.90952 137.817 4.90952H136.056V6.90971H137.96ZM8.27134 19.4483H10.1997L13.3976 28H11.4453L10.7985 26.0956H7.60062L6.9299 28H5.03751L8.27134 19.4483ZM10.3075 24.6943L9.22952 21.5563H9.20556L8.09169 24.6943H10.3075ZM14.135 19.4483H16.0154V22.7301H19.4768V19.4483H21.3572V28H19.4768V24.311H16.0154V28H14.135V19.4483ZM22.282 26.419H23.0006C23.2482 26.0837 23.4478 25.7203 23.5995 25.3291C23.7592 24.9378 23.879 24.5107 23.9588 24.0475C24.0466 23.5844 24.1025 23.0814 24.1265 22.5384C24.1584 21.9955 24.1744 21.4086 24.1744 20.7778V19.4483H30.3786V26.419H31.3128V29.9523H29.612V28H23.9828V29.9523H22.282V26.419ZM28.4981 26.419V20.9934H25.971V21.1491C25.971 21.732 25.955 22.2709 25.9231 22.766C25.8991 23.261 25.8512 23.7242 25.7793 24.1553C25.7154 24.5785 25.6196 24.9778 25.4919 25.353C25.3721 25.7203 25.2164 26.0757 25.0248 26.419H28.4981ZM32.2645 19.4483H36.1211C36.6561 19.4483 37.1112 19.5282 37.4865 19.6879C37.8618 19.8396 38.1652 20.0432 38.3968 20.2987C38.6363 20.5542 38.808 20.8496 38.9118 21.185C39.0236 21.5124 39.0795 21.8477 39.0795 22.1911C39.0795 22.5424 39.0236 22.8818 38.9118 23.2091C38.808 23.5365 38.6363 23.828 38.3968 24.0835C38.1652 24.339 37.8618 24.5466 37.4865 24.7063C37.1112 24.858 36.6561 24.9338 36.1211 24.9338H34.1449V28H32.2645V19.4483ZM35.6061 23.4726C35.8217 23.4726 36.0293 23.4567 36.2289 23.4247C36.4285 23.3928 36.6042 23.3329 36.7559 23.2451C36.9076 23.1493 37.0274 23.0175 37.1152 22.8498C37.2111 22.6821 37.259 22.4626 37.259 22.1911C37.259 21.9196 37.2111 21.7 37.1152 21.5323C37.0274 21.3647 36.9076 21.2369 36.7559 21.1491C36.6042 21.0532 36.4285 20.9894 36.2289 20.9574C36.0293 20.9255 35.8217 20.9095 35.6061 20.9095H34.1449V23.4726H35.6061ZM40.2532 19.4483H42.1336V28H40.2532V19.4483ZM45.5821 24.6224C45.0151 24.4787 44.556 24.1913 44.2047 23.7601C43.8613 23.3209 43.6897 22.754 43.6897 22.0593C43.6897 21.6042 43.7695 21.2129 43.9292 20.8856C44.0889 20.5582 44.3005 20.2867 44.564 20.0711C44.8355 19.8555 45.1469 19.6998 45.4982 19.604C45.8575 19.5002 46.2328 19.4483 46.6241 19.4483H50.8161V28H48.9476V24.7781H47.6182L45.3425 28H42.995L45.5821 24.6224ZM48.9476 23.3768V20.9215H47.0912C46.8916 20.9215 46.6959 20.9375 46.5043 20.9694C46.3206 20.9934 46.153 21.0493 46.0013 21.1371C45.8575 21.2169 45.7417 21.3327 45.6539 21.4844C45.5661 21.6282 45.5222 21.8238 45.5222 22.0713C45.5222 22.3348 45.5661 22.5504 45.6539 22.7181C45.7497 22.8858 45.8735 23.0215 46.0252 23.1253C46.1769 23.2211 46.3526 23.289 46.5522 23.3289C46.7518 23.3608 46.9594 23.3768 47.175 23.3768H48.9476ZM55.7977 19.4483H57.6781V22.8738L61.0198 19.4483H63.3673L59.6783 23.0295L63.6907 28H61.3312L58.3129 24.2032L57.6781 24.8859V28H55.7977V19.4483ZM64.4414 19.4483H68.298C68.833 19.4483 69.2882 19.5282 69.6634 19.6879C70.0387 19.8396 70.3421 20.0432 70.5737 20.2987C70.8132 20.5542 70.9849 20.8496 71.0887 21.185C71.2005 21.5124 71.2564 21.8477 71.2564 22.1911C71.2564 22.5424 71.2005 22.8818 71.0887 23.2091C70.9849 23.5365 70.8132 23.828 70.5737 24.0835C70.3421 24.339 70.0387 24.5466 69.6634 24.7063C69.2882 24.858 68.833 24.9338 68.298 24.9338H66.3218V28H64.4414V19.4483ZM67.783 23.4726C67.9986 23.4726 68.2062 23.4567 68.4058 23.4247C68.6055 23.3928 68.7811 23.3329 68.9328 23.2451C69.0845 23.1493 69.2043 23.0175 69.2921 22.8498C69.388 22.6821 69.4359 22.4626 69.4359 22.1911C69.4359 21.9196 69.388 21.7 69.2921 21.5323C69.2043 21.3647 69.0845 21.2369 68.9328 21.1491C68.7811 21.0532 68.6055 20.9894 68.4058 20.9574C68.2062 20.9255 67.9986 20.9095 67.783 20.9095H66.3218V23.4726H67.783ZM74.0829 28.1557C73.8753 28.1557 73.6877 28.1278 73.52 28.0719C73.3603 28.016 73.2405 27.9641 73.1607 27.9162V26.3951C73.2485 26.443 73.3523 26.4869 73.4721 26.5268C73.5998 26.5587 73.7555 26.5747 73.9392 26.5747C74.5061 26.5747 74.8495 26.3392 74.9692 25.8681L71.5438 19.4483H73.6517L75.9753 23.9038L77.712 19.4483H79.6762L77.0053 25.7243C76.8137 26.1635 76.6181 26.5388 76.4185 26.8502C76.2268 27.1536 76.0112 27.4051 75.7717 27.6048C75.5401 27.7964 75.2846 27.9361 75.0052 28.024C74.7337 28.1118 74.4263 28.1557 74.0829 28.1557ZM80.1848 19.4483H87.2992V28H85.4188V21.0293H82.0652V28H80.1848V19.4483ZM88.9571 19.4483H90.8376V22.8738L94.1792 19.4483H96.5267L92.8377 23.0295L96.8501 28H94.4906L91.4723 24.2032L90.8376 24.8859V28H88.9571V19.4483ZM97.6008 19.4483H99.4812V28H97.6008V19.4483ZM101.133 19.4483H103.014V22.7301H106.475V19.4483H108.355V28H106.475V24.311H103.014V28H101.133V19.4483ZM112.346 19.4483H114.275L117.473 28H115.52L114.873 26.0956H111.676L111.005 28H109.112L112.346 19.4483ZM114.382 24.6943L113.304 21.5563H113.28L112.167 24.6943H114.382Z" fill="black"/>
</svg>
