<svg width="18" height="18" viewBox="0 0 18 18" fill="none" xmlns="http://www.w3.org/2000/svg">
<path d="M3.85988 3.6875C2.388 3.6875 1.20312 4.87237 1.20312 6.34426V10.241C1.20312 11.7129 2.388 12.8977 3.85988 12.8977H12.0073C12.2852 12.8977 12.5531 12.8543 12.8044 12.7759L12.821 12.6985L10.9447 11.038L13.3912 10.8609L14.3101 8.4697L14.6644 9.39406V6.34426C14.6644 4.87237 13.4795 3.6875 12.0076 3.6875H3.85988ZM7.04813 6.34426L10.2364 8.29255L7.04813 10.2408V6.34412V6.34426ZM14.31 9.35532L13.6348 11.1155L11.8304 11.2482L13.2141 12.4714L12.7768 14.3145L14.31 13.3072L15.8431 14.3145L15.4058 12.4714L16.7895 11.2482L14.9852 11.1155L14.3098 9.35532H14.31Z" fill="#EBFF00"/>
</svg>
