<svg width="36" height="36" viewBox="0 0 36 36" fill="none" xmlns="http://www.w3.org/2000/svg"><path d="M25.5547 0H10.4632C3.90795 0 0 3.906 0 10.458V25.524C0 32.094 3.90795 36 10.4632 36H25.5367C32.092 36 35.9999 32.094 35.9999 25.542V10.458C36.0179 3.906 32.11 0 25.5547 0ZM18.009 24.984C14.1551 24.984 11.0215 21.852 11.0215 18C11.0215 14.148 14.1551 11.016 18.009 11.016C21.8629 11.016 24.9965 14.148 24.9965 18C24.9965 21.852 21.8629 24.984 18.009 24.984ZM28.6703 8.784C28.5802 9 28.4542 9.198 28.2921 9.378C28.112 9.54 27.9139 9.666 27.6978 9.756C27.4817 9.846 27.2476 9.9 27.0135 9.9C26.5272 9.9 26.077 9.72 25.7348 9.378C25.5727 9.198 25.4467 9 25.3566 8.784C25.2666 8.568 25.2126 8.334 25.2126 8.1C25.2126 7.866 25.2666 7.632 25.3566 7.416C25.4467 7.182 25.5727 7.002 25.7348 6.822C26.149 6.408 26.7793 6.21 27.3556 6.336C27.4817 6.354 27.5897 6.39 27.6978 6.444C27.8059 6.48 27.9139 6.534 28.022 6.606C28.112 6.66 28.2021 6.75 28.2921 6.822C28.4542 7.002 28.5802 7.182 28.6703 7.416C28.7603 7.632 28.8144 7.866 28.8144 8.1C28.8144 8.334 28.7603 8.568 28.6703 8.784Z" fill="#000"/></svg>
