<svg width="20" height="20" viewBox="0 0 20 20" fill="none" xmlns="http://www.w3.org/2000/svg">
<path d="M16.6824 10.5417C16.4716 10.5417 16.2512 10.4746 16.0403 10.4267C15.6137 10.3313 15.1942 10.2064 14.7849 10.0529C14.3403 9.89118 13.8516 9.89958 13.4129 10.0765C12.9741 10.2534 12.6163 10.5864 12.4082 11.0112L12.1974 11.4521C11.2667 10.9242 10.4069 10.2802 9.63866 9.53542C8.89389 8.76719 8.24984 7.90738 7.72199 6.97667L8.16283 6.77542C8.58772 6.56738 8.92066 6.20955 9.09758 5.77079C9.2745 5.33203 9.2829 4.84333 9.12116 4.39875C8.96896 3.98574 8.84411 3.56316 8.74741 3.13375C8.69949 2.92292 8.66116 2.7025 8.63241 2.49167C8.51603 1.81664 8.16247 1.20534 7.63538 0.767854C7.10829 0.330373 6.44233 0.0954584 5.75741 0.105417H2.87282C2.46769 0.104886 2.06701 0.189988 1.69706 0.355143C1.32712 0.520298 0.996251 0.761777 0.726158 1.06375C0.450465 1.37392 0.245185 1.74009 0.124424 2.13712C0.00366262 2.53414 -0.0297182 2.9526 0.0265751 3.36375C0.547513 7.35247 2.3699 11.0579 5.21116 13.9054C8.0587 16.7467 11.7641 18.5691 15.7528 19.09C15.8772 19.0995 16.0022 19.0995 16.1266 19.09C16.8333 19.091 17.5156 18.8318 18.0432 18.3617C18.3452 18.0916 18.5867 17.7607 18.7518 17.3908C18.917 17.0208 19.0021 16.6201 19.0016 16.215V13.34C18.9964 12.6778 18.7628 12.0377 18.3403 11.5279C17.9177 11.018 17.3321 10.6697 16.6824 10.5417ZM17.152 16.2917C17.1517 16.4254 17.1234 16.5576 17.0689 16.6797C17.0144 16.8019 16.935 16.9112 16.8357 17.0008C16.7307 17.0965 16.6057 17.1677 16.4698 17.2091C16.3339 17.2505 16.1905 17.2612 16.0499 17.2404C12.4737 16.7734 9.15015 15.1436 6.59116 12.6021C4.02999 10.0409 2.38602 6.70581 1.91449 3.11458C1.89367 2.97403 1.90437 2.8306 1.94581 2.69469C1.98724 2.55878 2.05838 2.43378 2.15408 2.32875C2.24475 2.22827 2.35569 2.14814 2.47957 2.09363C2.60346 2.03912 2.73748 2.01147 2.87282 2.0125H5.74783C5.96936 2.00709 6.18592 2.07861 6.36065 2.2149C6.53537 2.35119 6.65747 2.54382 6.70616 2.76C6.70616 3.01875 6.79241 3.28708 6.84991 3.54583C6.96067 4.04787 7.10801 4.54113 7.29074 5.02167L5.94908 5.65417C5.71847 5.76003 5.53925 5.95302 5.45074 6.19083C5.35489 6.42415 5.35489 6.68585 5.45074 6.91917C6.82998 9.87347 9.20477 12.2483 12.1591 13.6275C12.3924 13.7233 12.6541 13.7233 12.8874 13.6275C13.1252 13.539 13.3182 13.3598 13.4241 13.1292L14.0278 11.7875C14.5222 11.9678 15.0281 12.1151 15.542 12.2283C15.7912 12.2858 16.0595 12.3337 16.3182 12.3721C16.5344 12.4208 16.7271 12.5429 16.8633 12.7176C16.9996 12.8923 17.0712 13.1089 17.0657 13.3304L17.152 16.2917ZM11.4978 0C11.2774 0 11.0474 0 10.827 0C10.5728 0.0216041 10.3377 0.14329 10.1732 0.338289C10.0088 0.533288 9.92851 0.785626 9.95012 1.03979C9.97172 1.29396 10.0934 1.52913 10.2884 1.69358C10.4834 1.85802 10.7357 1.93827 10.9899 1.91667H11.4978C13.0228 1.91667 14.4854 2.52247 15.5637 3.6008C16.642 4.67914 17.2478 6.14167 17.2478 7.66667C17.2478 7.83917 17.2478 8.00208 17.2478 8.17458C17.2266 8.4274 17.3064 8.67833 17.4699 8.87235C17.6334 9.06636 17.8671 9.18764 18.1199 9.20958H18.1966C18.4365 9.21056 18.668 9.12151 18.8455 8.96005C19.0229 8.79858 19.1333 8.57643 19.1549 8.3375C19.1549 8.11708 19.1549 7.88708 19.1549 7.66667C19.1549 5.635 18.3485 3.6864 16.9128 2.2489C15.4771 0.811396 13.5295 0.00253958 11.4978 0V0ZM13.4145 7.66667C13.4145 7.92083 13.5155 8.16459 13.6952 8.34431C13.8749 8.52403 14.1187 8.625 14.3728 8.625C14.627 8.625 14.8707 8.52403 15.0505 8.34431C15.2302 8.16459 15.3312 7.92083 15.3312 7.66667C15.3312 6.65 14.9273 5.67498 14.2084 4.95609C13.4895 4.2372 12.5145 3.83333 11.4978 3.83333C11.2437 3.83333 10.9999 3.9343 10.8202 4.11402C10.6405 4.29375 10.5395 4.5375 10.5395 4.79167C10.5395 5.04583 10.6405 5.28959 10.8202 5.46931C10.9999 5.64903 11.2437 5.75 11.4978 5.75C12.0062 5.75 12.4937 5.95193 12.8531 6.31138C13.2126 6.67082 13.4145 7.15833 13.4145 7.66667Z" fill="currentColor"/>
</svg>
