<svg width="20" height="20" viewBox="0 0 20 20" fill="none" xmlns="http://www.w3.org/2000/svg">
<g clip-path="url(#clip0_1_1827)">
<path d="M18.1708 8.33357C18.5513 10.2013 18.2801 12.1431 17.4023 13.8351C16.5245 15.527 15.0932 16.8669 13.347 17.6313C11.6009 18.3957 9.64545 18.5384 7.80684 18.0355C5.96823 17.5327 4.35758 16.4147 3.24349 14.8681C2.12939 13.3214 1.57919 11.4396 1.68464 9.53639C1.79009 7.63318 2.54482 5.82364 3.82297 4.40954C5.10111 2.99545 6.82541 2.06226 8.70831 1.76561C10.5912 1.46897 12.5189 1.82679 14.1699 2.7794" stroke="#EBFF00" stroke-width="1.66667" stroke-linecap="round" stroke-linejoin="round"/>
<path d="M7.5 9.16536L10 11.6654L18.3333 3.33203" stroke="#EBFF00" stroke-width="1.66667" stroke-linecap="round" stroke-linejoin="round"/>
</g>
<defs>
<clipPath id="clip0_1_1827">
<rect width="20" height="20" fill="white"/>
</clipPath>
</defs>
</svg>
